<mxfile host="app.diagrams.net" modified="2021-02-23T10:39:52.920Z" agent="5.0 (Macintosh; Intel Mac OS X 10_14_6) AppleWebKit/605.1.15 (KHTML, like Gecko) Version/12.1.2 Safari/605.1.15" etag="jabX39XDEt5LUfrVptpO" version="14.4.2" type="github">
  <diagram id="C58wniKrapcQ-cjKH00h" name="Page-1">
    <mxGraphModel dx="1638" dy="743" grid="1" gridSize="10" guides="1" tooltips="1" connect="1" arrows="1" fold="1" page="1" pageScale="1" pageWidth="827" pageHeight="1169" math="0" shadow="0">
      <root>
        <mxCell id="0" />
        <mxCell id="1" parent="0" />
        <mxCell id="LFIR5Tasnli8CIpFmkzX-3" value="" style="shape=link;html=1;width=2;fillColor=#d5e8d4;strokeColor=#82b366;" edge="1" parent="1">
          <mxGeometry width="100" relative="1" as="geometry">
            <mxPoint x="80" y="240" as="sourcePoint" />
            <mxPoint x="600" y="240" as="targetPoint" />
          </mxGeometry>
        </mxCell>
        <mxCell id="LFIR5Tasnli8CIpFmkzX-5" value="自主购买" style="rounded=1;whiteSpace=wrap;html=1;strokeColor=none;" vertex="1" parent="1">
          <mxGeometry x="295" y="210" width="70" height="20" as="geometry" />
        </mxCell>
        <mxCell id="LFIR5Tasnli8CIpFmkzX-8" value="单个词购买" style="rounded=1;whiteSpace=wrap;html=1;strokeColor=none;" vertex="1" parent="1">
          <mxGeometry x="290" y="260" width="70" height="20" as="geometry" />
        </mxCell>
        <mxCell id="LFIR5Tasnli8CIpFmkzX-10" value="词包推荐" style="ellipse;whiteSpace=wrap;html=1;" vertex="1" parent="1">
          <mxGeometry x="502" y="290" width="60" height="33.33" as="geometry" />
        </mxCell>
        <mxCell id="LFIR5Tasnli8CIpFmkzX-11" value="词推荐" style="ellipse;whiteSpace=wrap;html=1;" vertex="1" parent="1">
          <mxGeometry x="295" y="290" width="60" height="33.33" as="geometry" />
        </mxCell>
        <mxCell id="LFIR5Tasnli8CIpFmkzX-12" value="推荐理由" style="shape=ext;double=1;rounded=0;whiteSpace=wrap;html=1;" vertex="1" parent="1">
          <mxGeometry x="297.5" y="350" width="55" height="30" as="geometry" />
        </mxCell>
        <mxCell id="LFIR5Tasnli8CIpFmkzX-14" value="" style="shape=curlyBracket;whiteSpace=wrap;html=1;rounded=1;rotation=90;" vertex="1" parent="1">
          <mxGeometry x="315" y="350" width="20" height="80" as="geometry" />
        </mxCell>
        <mxCell id="LFIR5Tasnli8CIpFmkzX-15" value="推广设备" style="shape=ext;double=1;rounded=0;whiteSpace=wrap;html=1;" vertex="1" parent="1">
          <mxGeometry x="230" y="350" width="55" height="30" as="geometry" />
        </mxCell>
        <mxCell id="LFIR5Tasnli8CIpFmkzX-16" value="省市地域" style="shape=ext;double=1;rounded=0;whiteSpace=wrap;html=1;" vertex="1" parent="1">
          <mxGeometry x="370" y="350" width="55" height="30" as="geometry" />
        </mxCell>
        <mxCell id="LFIR5Tasnli8CIpFmkzX-31" value="计算机黑马词" style="rounded=1;whiteSpace=wrap;html=1;" vertex="1" parent="1">
          <mxGeometry x="300" y="400" width="20" height="90" as="geometry" />
        </mxCell>
        <mxCell id="LFIR5Tasnli8CIpFmkzX-34" value="计算机热词" style="rounded=1;whiteSpace=wrap;html=1;" vertex="1" parent="1">
          <mxGeometry x="275" y="400" width="20" height="90" as="geometry" />
        </mxCell>
        <mxCell id="LFIR5Tasnli8CIpFmkzX-35" value="移动热词" style="rounded=1;whiteSpace=wrap;html=1;" vertex="1" parent="1">
          <mxGeometry x="328" y="400" width="20" height="90" as="geometry" />
        </mxCell>
        <mxCell id="LFIR5Tasnli8CIpFmkzX-36" value="移动黑马词" style="rounded=1;whiteSpace=wrap;html=1;" vertex="1" parent="1">
          <mxGeometry x="355" y="400" width="20" height="90" as="geometry" />
        </mxCell>
        <mxCell id="LFIR5Tasnli8CIpFmkzX-37" value="指标晒选" style="rounded=1;whiteSpace=wrap;html=1;" vertex="1" parent="1">
          <mxGeometry x="230" y="510" width="200" height="20" as="geometry" />
        </mxCell>
        <mxCell id="LFIR5Tasnli8CIpFmkzX-47" value="推广业务词包" style="shape=ext;double=1;rounded=0;whiteSpace=wrap;html=1;" vertex="1" parent="1">
          <mxGeometry x="489.25" y="350" width="85.5" height="30" as="geometry" />
        </mxCell>
        <mxCell id="LFIR5Tasnli8CIpFmkzX-48" value="季节性词" style="rounded=1;whiteSpace=wrap;html=1;" vertex="1" parent="1">
          <mxGeometry x="507" y="400" width="20" height="90" as="geometry" />
        </mxCell>
        <mxCell id="LFIR5Tasnli8CIpFmkzX-49" value="长尾词" style="rounded=1;whiteSpace=wrap;html=1;" vertex="1" parent="1">
          <mxGeometry x="482" y="400" width="20" height="90" as="geometry" />
        </mxCell>
        <mxCell id="LFIR5Tasnli8CIpFmkzX-50" value="热点词" style="rounded=1;whiteSpace=wrap;html=1;" vertex="1" parent="1">
          <mxGeometry x="535" y="400" width="20" height="90" as="geometry" />
        </mxCell>
        <mxCell id="LFIR5Tasnli8CIpFmkzX-51" value="同行购买词" style="rounded=1;whiteSpace=wrap;html=1;" vertex="1" parent="1">
          <mxGeometry x="562" y="400" width="20" height="90" as="geometry" />
        </mxCell>
        <mxCell id="LFIR5Tasnli8CIpFmkzX-52" value="" style="shape=curlyBracket;whiteSpace=wrap;html=1;rounded=1;rotation=90;" vertex="1" parent="1">
          <mxGeometry x="522" y="350" width="20" height="80" as="geometry" />
        </mxCell>
        <mxCell id="LFIR5Tasnli8CIpFmkzX-53" value="词包报告" style="rounded=1;whiteSpace=wrap;html=1;" vertex="1" parent="1">
          <mxGeometry x="476" y="510" width="112" height="20" as="geometry" />
        </mxCell>
        <mxCell id="LFIR5Tasnli8CIpFmkzX-66" value="下载批量关键词" style="ellipse;whiteSpace=wrap;html=1;" vertex="1" parent="1">
          <mxGeometry x="105" y="290" width="60" height="33.33" as="geometry" />
        </mxCell>
        <mxCell id="LFIR5Tasnli8CIpFmkzX-77" style="edgeStyle=orthogonalEdgeStyle;rounded=0;orthogonalLoop=1;jettySize=auto;html=1;exitX=0.5;exitY=1;exitDx=0;exitDy=0;entryX=0.5;entryY=0;entryDx=0;entryDy=0;" edge="1" parent="1" source="LFIR5Tasnli8CIpFmkzX-75" target="LFIR5Tasnli8CIpFmkzX-76">
          <mxGeometry relative="1" as="geometry" />
        </mxCell>
        <mxCell id="LFIR5Tasnli8CIpFmkzX-75" value="账户建立初期" style="rounded=1;whiteSpace=wrap;html=1;" vertex="1" parent="1">
          <mxGeometry x="180" y="667" width="120" height="30" as="geometry" />
        </mxCell>
        <mxCell id="LFIR5Tasnli8CIpFmkzX-76" value="账户推广阶段" style="rounded=1;whiteSpace=wrap;html=1;" vertex="1" parent="1">
          <mxGeometry x="180" y="857" width="120" height="30" as="geometry" />
        </mxCell>
        <mxCell id="LFIR5Tasnli8CIpFmkzX-78" value="" style="shape=link;html=1;width=2;fillColor=#1ba1e2;strokeColor=#006EAF;" edge="1" parent="1">
          <mxGeometry width="100" relative="1" as="geometry">
            <mxPoint x="78" y="560" as="sourcePoint" />
            <mxPoint x="598" y="560" as="targetPoint" />
          </mxGeometry>
        </mxCell>
        <mxCell id="LFIR5Tasnli8CIpFmkzX-79" value="查询式推荐" style="rounded=1;whiteSpace=wrap;html=1;" vertex="1" parent="1">
          <mxGeometry x="325" y="610" width="140" height="20" as="geometry" />
        </mxCell>
        <mxCell id="LFIR5Tasnli8CIpFmkzX-80" value="主动式推荐" style="rounded=1;whiteSpace=wrap;html=1;" vertex="1" parent="1">
          <mxGeometry x="325" y="640" width="140" height="20" as="geometry" />
        </mxCell>
        <mxCell id="LFIR5Tasnli8CIpFmkzX-81" value="提供指导价、周均搜索量、竞争激烈程度等信息" style="rounded=1;whiteSpace=wrap;html=1;" vertex="1" parent="1">
          <mxGeometry x="325" y="670" width="140" height="30" as="geometry" />
        </mxCell>
        <mxCell id="LFIR5Tasnli8CIpFmkzX-84" value="支持筛选推荐理由标签、推广设备、省市地域" style="rounded=1;whiteSpace=wrap;html=1;" vertex="1" parent="1">
          <mxGeometry x="325" y="720" width="140" height="30" as="geometry" />
        </mxCell>
        <mxCell id="LFIR5Tasnli8CIpFmkzX-85" value="" style="shape=curlyBracket;whiteSpace=wrap;html=1;rounded=1;" vertex="1" parent="1">
          <mxGeometry x="300" y="622" width="20" height="120" as="geometry" />
        </mxCell>
        <mxCell id="LFIR5Tasnli8CIpFmkzX-86" value="主动式推荐" style="rounded=1;whiteSpace=wrap;html=1;" vertex="1" parent="1">
          <mxGeometry x="325" y="787" width="140" height="20" as="geometry" />
        </mxCell>
        <mxCell id="LFIR5Tasnli8CIpFmkzX-87" value="推荐关键词数量与投放业务、自身账户关键词有关" style="rounded=1;whiteSpace=wrap;html=1;" vertex="1" parent="1">
          <mxGeometry x="325" y="817" width="140" height="30" as="geometry" />
        </mxCell>
        <mxCell id="LFIR5Tasnli8CIpFmkzX-88" value="支持批量编辑调整计划/单元、匹配模式" style="rounded=1;whiteSpace=wrap;html=1;" vertex="1" parent="1">
          <mxGeometry x="325" y="927" width="140" height="30" as="geometry" />
        </mxCell>
        <mxCell id="LFIR5Tasnli8CIpFmkzX-89" value="提供指导价、推荐理由标签、预估可能新增周均展现量、预估可能新增周均点击量" style="rounded=1;whiteSpace=wrap;html=1;" vertex="1" parent="1">
          <mxGeometry x="325" y="858.5" width="140" height="58.5" as="geometry" />
        </mxCell>
        <mxCell id="LFIR5Tasnli8CIpFmkzX-90" value="" style="shape=curlyBracket;whiteSpace=wrap;html=1;rounded=1;" vertex="1" parent="1">
          <mxGeometry x="300" y="799.5" width="20" height="145" as="geometry" />
        </mxCell>
        <mxCell id="LFIR5Tasnli8CIpFmkzX-93" value="词包购买" style="rounded=1;whiteSpace=wrap;html=1;strokeColor=none;" vertex="1" parent="1">
          <mxGeometry x="497" y="260" width="70" height="20" as="geometry" />
        </mxCell>
        <mxCell id="LFIR5Tasnli8CIpFmkzX-94" value="白盒" style="rounded=1;whiteSpace=wrap;html=1;strokeColor=none;" vertex="1" parent="1">
          <mxGeometry x="295" y="565" width="70" height="20" as="geometry" />
        </mxCell>
      </root>
    </mxGraphModel>
  </diagram>
</mxfile>
